OxygenSans-Bold.ufo
<glyph name="exclam" format="1">
  <advance width="617"/>
  <unicode hex="0021"/>
  <outline>
    <contour>
      <point x="309" y="-7" type="curve" smooth="yes"/>
      <point x="225" y="-7"/>
      <point x="162" y="61"/>
      <point x="162" y="139" type="curve" smooth="yes"/>
      <point x="162" y="218"/>
      <point x="225" y="286"/>
      <point x="309" y="286" type="curve" smooth="yes"/>
      <point x="392" y="286"/>
      <point x="455" y="218"/>
      <point x="455" y="139" type="curve" smooth="yes"/>
      <point x="455" y="61"/>
      <point x="392" y="-7"/>
    </contour>
    <contour>
      <point x="430" y="1127" type="line"/>
      <point x="373" y="418" type="line"/>
      <point x="260" y="418" type="line"/>
      <point x="196" y="1127" type="line"/>
      <point x="196" y="1335" type="line"/>
      <point x="430" y="1335" type="line"/>
    </contour>
  </outline>
</glyph>
<glyph name="numbersign" format="1">
  <advance width="1045"/>
  <unicode hex="0023"/>
  <outline>
    <contour>
      <point x="440" y="547" type="line"/>
      <point x="590" y="547" type="line"/>
      <point x="638" y="809" type="line"/>
      <point x="490" y="809" type="line"/>
    </contour>
    <contour>
      <point x="252" y="547" type="line"/>
      <point x="297" y="808" type="line"/>
      <point x="111" y="808" type="line"/>
      <point x="118" y="990" type="line"/>
      <point x="329" y="990" type="line"/>
      <point x="399" y="1336" type="line"/>
      <point x="590" y="1336" type="line"/>
      <point x="524" y="990" type="line"/>
      <point x="672" y="990" type="line"/>
      <point x="737" y="1336" type="line"/>
      <point x="925" y="1336" type="line"/>
      <point x="859" y="990" type="line"/>
      <point x="1020" y="990" type="line"/>
      <point x="1008" y="809" type="line"/>
      <point x="825" y="809" type="line"/>
      <point x="776" y="547" type="line"/>
      <point x="949" y="547" type="line"/>
      <point x="940" y="369" type="line"/>
      <point x="747" y="369" type="line"/>
      <point x="676" y="-13" type="line"/>
      <point x="485" y="-13" type="line"/>
      <point x="554" y="369" type="line"/>
      <point x="408" y="369" type="line"/>
      <point x="338" y="-13" type="line"/>
      <point x="151" y="-13" type="line"/>
      <point x="218" y="369" type="line"/>
      <point x="40" y="369" type="line"/>
      <point x="49" y="547" type="line"/>
    </contour>
  </outline>
</glyph>
<glyph name="dollar" format="1">
  <advance width="1053"/>
  <unicode hex="0024"/>
  <outline>
    <contour>
      <point x="606" y="-148" type="line"/>
      <point x="487" y="-148" type="line"/>
      <point x="487" y="-17" type="line"/>
      <point x="319" y="-15"/>
      <point x="180" y="18"/>
      <point x="68" y="82" type="curve"/>
      <point x="133" y="300" type="line"/>
      <point x="209" y="254"/>
      <point x="360" y="216"/>
      <point x="487" y="211" type="curve"/>
      <point x="487" y="572" type="line"/>
      <point x="349" y="617" type="line" smooth="yes"/>
      <point x="187" y="670"/>
      <point x="83" y="785"/>
      <point x="83" y="975" type="curve" smooth="yes"/>
      <point x="83" y="1207"/>
      <point x="251" y="1337"/>
      <point x="487" y="1356" type="curve"/>
      <point x="487" y="1480" type="line"/>
      <point x="606" y="1480" type="line"/>
      <point x="606" y="1356" type="line"/>
      <point x="741" y="1349"/>
      <point x="857" y="1315"/>
      <point x="963" y="1255" type="curve"/>
      <point x="882" y="1048" type="line"/>
      <point x="802" y="1083"/>
      <point x="707" y="1118"/>
      <point x="606" y="1126" type="curve"/>
      <point x="606" y="801" type="line"/>
      <point x="658" y="783" type="line"/>
      <point x="893" y="705"/>
      <point x="998" y="598"/>
      <point x="998" y="381" type="curve" smooth="yes"/>
      <point x="998" y="151"/>
      <point x="840" y="18"/>
      <point x="606" y="-11" type="curve"/>
    </contour>
    <contour>
      <point x="606" y="220" type="line"/>
      <point x="609" y="220" type="line"/>
      <point x="687" y="241"/>
      <point x="725" y="293"/>
      <point x="725" y="385" type="curve" smooth="yes"/>
      <point x="725" y="454"/>
      <point x="682" y="500"/>
      <point x="606" y="532" type="curve"/>
    </contour>
    <contour>
      <point x="487" y="841" type="line"/>
      <point x="487" y="1123" type="line"/>
      <point x="400" y="1109"/>
      <point x="352" y="1066"/>
      <point x="352" y="980" type="curve" smooth="yes"/>
      <point x="352" y="915"/>
      <point x="389" y="873"/>
      <point x="450" y="853" type="curve" smooth="yes"/>
    </contour>
  </outline>
</glyph>
<glyph name="parenleft" format="1">
  <advance width="570"/>
  <unicode hex="0028"/>
  <outline>
    <contour>
      <point x="565" y="-245" type="line"/>
      <point x="333" y="-245" type="line"/>
      <point x="330" y="-237" type="line"/>
      <point x="180" y="-29"/>
      <point x="76" y="234"/>
      <point x="76" y="550" type="curve" smooth="yes"/>
      <point x="76" y="869"/>
      <point x="177" y="1139"/>
      <point x="329" y="1354" type="curve"/>
      <point x="332" y="1362" type="line"/>
      <point x="566" y="1362" type="line"/>
      <point x="556" y="1343" type="line"/>
      <point x="457" y="1201"/>
      <point x="317" y="868"/>
      <point x="317" y="552" type="curve" smooth="yes"/>
      <point x="317" y="238"/>
      <point x="460" y="-90"/>
      <point x="555" y="-226" type="curve"/>
    </contour>
  </outline>
</glyph>
<glyph name="comma" format="1">
  <advance width="443"/>
  <unicode hex="002C"/>
  <outline>
    <contour>
      <point x="137" y="245" type="line"/>
      <point x="374" y="245" type="line"/>
      <point x="369" y="190" type="line"/>
      <point x="369" y="189" type="line"/>
      <point x="333" y="63"/>
      <point x="285" y="-82"/>
      <point x="228" y="-227" type="curve"/>
      <point x="226" y="-233" type="line"/>
      <point x="49" y="-233" type="line"/>
      <point x="51" y="-221" type="line"/>
      <point x="82" y="-70"/>
      <point x="113" y="95"/>
      <point x="136" y="238" type="curve"/>
    </contour>
  </outline>
</glyph>
<glyph name="period" format="1">
  <advance width="538"/>
  <unicode hex="002E"/>
  <outline>
    <contour>
      <point x="270" y="3" type="curve" smooth="yes"/>
      <point x="187" y="3"/>
      <point x="122" y="69"/>
      <point x="122" y="148" type="curve" smooth="yes"/>
      <point x="122" y="227"/>
      <point x="186" y="295"/>
      <point x="270" y="295" type="curve" smooth="yes"/>
      <point x="353" y="295"/>
      <point x="416" y="227"/>
      <point x="416" y="148" type="curve" smooth="yes"/>
      <point x="416" y="70"/>
      <point x="353" y="3"/>
    </contour>
  </outline>
</glyph>
<glyph name="one" format="1">
  <advance width="1015"/>
  <unicode hex="0031"/>
  <outline>
    <contour>
      <point x="897" y="0" type="line"/>
      <point x="897" y="200" type="line"/>
      <point x="640" y="200" type="line"/>
      <point x="640" y="1342" type="line"/>
      <point x="419" y="1342" type="line"/>
      <point x="341" y="1286"/>
      <point x="213" y="1238"/>
      <point x="96" y="1206" type="curve"/>
      <point x="96" y="1005" type="line"/>
      <point x="235" y="1027"/>
      <point x="344" y="1074"/>
      <point x="384" y="1102" type="curve"/>
      <point x="384" y="200" type="line"/>
      <point x="96" y="200" type="line"/>
      <point x="96" y="0" type="line"/>
    </contour>
  </outline>
</glyph>
<glyph name="two" format="1">
  <advance width="965"/>
  <unicode hex="0032"/>
  <outline>
    <contour>
      <point x="618" y="970" type="curve" smooth="yes"/>
      <point x="618" y="1077"/>
      <point x="537" y="1158"/>
      <point x="427" y="1158" type="curve"/>
      <point x="304" y="1158"/>
      <point x="180" y="1075"/>
      <point x="143" y="1046" type="curve"/>
      <point x="68" y="1232" type="line"/>
      <point x="145" y="1299"/>
      <point x="277" y="1363"/>
      <point x="440" y="1363" type="curve" smooth="yes"/>
      <point x="687" y="1363"/>
      <point x="877" y="1220"/>
      <point x="877" y="972" type="curve" smooth="yes"/>
      <point x="877" y="813"/>
      <point x="742" y="614"/>
      <point x="628" y="494" type="curve" smooth="yes"/>
      <point x="363" y="200" type="line"/>
      <point x="869" y="200" type="line"/>
      <point x="852" y="0" type="line"/>
      <point x="66" y="0" type="line"/>
      <point x="60" y="207" type="line"/>
      <point x="477" y="680" type="line" smooth="yes"/>
      <point x="558" y="769"/>
      <point x="618" y="885"/>
    </contour>
  </outline>
</glyph>
<glyph name="three" format="1">
  <advance width="998"/>
  <unicode hex="0033"/>
  <outline>
    <contour>
      <point x="116" y="295" type="line"/>
      <point x="126" y="287" type="line"/>
      <point x="189" y="235"/>
      <point x="313" y="196"/>
      <point x="431" y="196" type="curve" smooth="yes"/>
      <point x="561" y="196"/>
      <point x="642" y="273"/>
      <point x="642" y="385" type="curve" smooth="yes"/>
      <point x="642" y="564"/>
      <point x="513" y="594"/>
      <point x="302" y="599" type="curve"/>
      <point x="242" y="599" type="line"/>
      <point x="242" y="799" type="line"/>
      <point x="302" y="799" type="line"/>
      <point x="489" y="800"/>
      <point x="618" y="833"/>
      <point x="618" y="981" type="curve" smooth="yes"/>
      <point x="618" y="1071"/>
      <point x="552" y="1159"/>
      <point x="415" y="1159" type="curve" smooth="yes"/>
      <point x="301" y="1159"/>
      <point x="199" y="1125"/>
      <point x="125" y="1077" type="curve"/>
      <point x="115" y="1071" type="line"/>
      <point x="44" y="1259" type="line"/>
      <point x="51" y="1264" type="line"/>
      <point x="153" y="1327"/>
      <point x="272" y="1363"/>
      <point x="437" y="1363" type="curve" smooth="yes"/>
      <point x="684" y="1363"/>
      <point x="864" y="1215"/>
      <point x="864" y="1000" type="curve" smooth="yes"/>
      <point x="864" y="863"/>
      <point x="798" y="760"/>
      <point x="673" y="707" type="curve"/>
      <point x="819" y="663"/>
      <point x="900" y="528"/>
      <point x="900" y="373" type="curve" smooth="yes"/>
      <point x="900" y="122"/>
      <point x="686" y="-9"/>
      <point x="430" y="-9" type="curve" smooth="yes"/>
      <point x="278" y="-9"/>
      <point x="131" y="33"/>
      <point x="49" y="103" type="curve"/>
      <point x="44" y="108" type="line"/>
    </contour>
  </outline>
</glyph>
<glyph name="six" format="1">
  <advance width="1140"/>
  <unicode hex="0036"/>
  <outline>
    <contour>
      <point x="568" y="189" type="curve" smooth="yes"/>
      <point x="720" y="189"/>
      <point x="804" y="283"/>
      <point x="804" y="422" type="curve" smooth="yes"/>
      <point x="804" y="566"/>
      <point x="732" y="659"/>
      <point x="571" y="659" type="curve" smooth="yes"/>
      <point x="406" y="659"/>
      <point x="343" y="561"/>
      <point x="343" y="420" type="curve" smooth="yes"/>
      <point x="343" y="281"/>
      <point x="420" y="189"/>
    </contour>
    <contour>
      <point x="612" y="1330" type="curve"/>
      <point x="615" y="1334" type="line"/>
      <point x="931" y="1334" type="line"/>
      <point x="542" y="835" type="line"/>
      <point x="564" y="841"/>
      <point x="589" y="847"/>
      <point x="619" y="847" type="curve" smooth="yes"/>
      <point x="875" y="847"/>
      <point x="1068" y="676"/>
      <point x="1068" y="426" type="curve" smooth="yes"/>
      <point x="1068" y="163"/>
      <point x="856" y="-9"/>
      <point x="578" y="-9" type="curve" smooth="yes"/>
      <point x="289" y="-9"/>
      <point x="82" y="165"/>
      <point x="82" y="431" type="curve" smooth="yes"/>
      <point x="82" y="607"/>
      <point x="166" y="732"/>
      <point x="264" y="862" type="curve" smooth="yes"/>
      <point x="282" y="885"/>
      <point x="612" y="1330"/>
    </contour>
  </outline>
</glyph>
<glyph name="eight" format="1">
  <advance width="1093"/>
  <unicode hex="0038"/>
  <outline>
    <contour>
      <point x="549" y="781" type="curve"/>
      <point x="681" y="812"/>
      <point x="761" y="891"/>
      <point x="761" y="1016" type="curve" smooth="yes"/>
      <point x="761" y="1118"/>
      <point x="672" y="1184"/>
      <point x="549" y="1184" type="curve" smooth="yes"/>
      <point x="426" y="1184"/>
      <point x="334" y="1118"/>
      <point x="334" y="1016" type="curve" smooth="yes"/>
      <point x="334" y="891"/>
      <point x="416" y="812"/>
    </contour>
    <contour>
      <point x="549" y="173" type="curve" smooth="yes"/>
      <point x="692" y="173"/>
      <point x="773" y="243"/>
      <point x="773" y="369" type="curve" smooth="yes"/>
      <point x="773" y="500"/>
      <point x="678" y="579"/>
      <point x="549" y="614" type="curve"/>
      <point x="419" y="579"/>
      <point x="323" y="501"/>
      <point x="323" y="368" type="curve" smooth="yes"/>
      <point x="323" y="243"/>
      <point x="407" y="173"/>
    </contour>
    <contour>
      <point x="549" y="1" type="curve" smooth="yes"/>
      <point x="300" y="1"/>
      <point x="84" y="129"/>
      <point x="84" y="375" type="curve" smooth="yes"/>
      <point x="84" y="540"/>
      <point x="172" y="647"/>
      <point x="301" y="711" type="curve"/>
      <point x="190" y="770"/>
      <point x="109" y="865"/>
      <point x="109" y="1017" type="curve" smooth="yes"/>
      <point x="109" y="1249"/>
      <point x="310" y="1363"/>
      <point x="548" y="1363" type="curve" smooth="yes"/>
      <point x="788" y="1363"/>
      <point x="985" y="1249"/>
      <point x="985" y="1017" type="curve" smooth="yes"/>
      <point x="985" y="868"/>
      <point x="912" y="772"/>
      <point x="806" y="711" type="curve"/>
      <point x="927" y="646"/>
      <point x="1009" y="538"/>
      <point x="1009" y="374" type="curve" smooth="yes"/>
      <point x="1009" y="127"/>
      <point x="796" y="1"/>
    </contour>
  </outline>
</glyph>
<glyph name="nine" format="1">
  <advance width="1138"/>
  <unicode hex="0039"/>
  <outline>
    <contour>
      <point x="566" y="687" type="curve" smooth="yes"/>
      <point x="730" y="687"/>
      <point x="794" y="789"/>
      <point x="794" y="934" type="curve" smooth="yes"/>
      <point x="794" y="1074"/>
      <point x="718" y="1166"/>
      <point x="570" y="1166" type="curve" smooth="yes"/>
      <point x="418" y="1166"/>
      <point x="331" y="1071"/>
      <point x="331" y="930" type="curve" smooth="yes"/>
      <point x="331" y="783"/>
      <point x="405" y="687"/>
    </contour>
    <contour>
      <point x="68" y="924" type="curve" smooth="yes"/>
      <point x="68" y="1190"/>
      <point x="279" y="1363"/>
      <point x="558" y="1363" type="curve" smooth="yes"/>
      <point x="847" y="1363"/>
      <point x="1054" y="1190"/>
      <point x="1054" y="922" type="curve" smooth="yes"/>
      <point x="1054" y="750"/>
      <point x="973" y="626"/>
      <point x="884" y="503" type="curve" smooth="yes"/>
      <point x="863" y="475"/>
      <point x="520" y="13"/>
      <point x="520" y="13" type="curve"/>
      <point x="517" y="10" type="line"/>
      <point x="204" y="10" type="line"/>
      <point x="593" y="515" type="line"/>
      <point x="570" y="508"/>
      <point x="546" y="502"/>
      <point x="516" y="502" type="curve" smooth="yes"/>
      <point x="260" y="502"/>
      <point x="68" y="671"/>
    </contour>
  </outline>
</glyph>
<glyph name="colon" format="1">
  <advance width="400"/>
  <unicode hex="003A"/>
  <outline>
    <contour>
      <point x="83" y="768" type="line"/>
      <point x="83" y="1023" type="line"/>
      <point x="339" y="1023" type="line"/>
      <point x="339" y="768" type="line"/>
    </contour>
    <contour>
      <point x="83" y="-6" type="line"/>
      <point x="83" y="260" type="line"/>
      <point x="339" y="260" type="line"/>
      <point x="339" y="-6" type="line"/>
    </contour>
  </outline>
</glyph>
<glyph name="at" format="1">
  <advance width="1494"/>
  <unicode hex="0040"/>
  <outline>
    <contour>
      <point x="669" y="306" type="curve" smooth="yes"/>
      <point x="789" y="306"/>
      <point x="858" y="471"/>
      <point x="896" y="646" type="curve" smooth="yes"/>
      <point x="909" y="705"/>
      <point x="916" y="756"/>
      <point x="925" y="811" type="curve"/>
      <point x="897" y="816"/>
      <point x="867" y="819"/>
      <point x="836" y="819" type="curve" smooth="yes"/>
      <point x="689" y="819"/>
      <point x="573" y="635"/>
      <point x="573" y="468" type="curve" smooth="yes"/>
      <point x="573" y="379"/>
      <point x="602" y="306"/>
    </contour>
    <contour>
      <point x="1458" y="640" type="curve" smooth="yes"/>
      <point x="1458" y="349"/>
      <point x="1265" y="140"/>
      <point x="1058" y="140" type="curve" smooth="yes"/>
      <point x="969" y="140"/>
      <point x="901" y="188"/>
      <point x="887" y="309" type="curve"/>
      <point x="841" y="221"/>
      <point x="760" y="154"/>
      <point x="667" y="154" type="curve" smooth="yes"/>
      <point x="491" y="154"/>
      <point x="391" y="295"/>
      <point x="391" y="472" type="curve" smooth="yes"/>
      <point x="391" y="729"/>
      <point x="574" y="947"/>
      <point x="823" y="947" type="curve" smooth="yes"/>
      <point x="928" y="947"/>
      <point x="1026" y="919"/>
      <point x="1106" y="888" type="curve"/>
      <point x="1113" y="885" type="line"/>
      <point x="1112" y="877" type="line"/>
      <point x="1084" y="724"/>
      <point x="1044" y="567"/>
      <point x="1026" y="433" type="curve" smooth="yes"/>
      <point x="1010" y="312"/>
      <point x="1024" y="293"/>
      <point x="1058" y="288" type="curve" smooth="yes"/>
      <point x="1064" y="287"/>
      <point x="1069" y="287"/>
      <point x="1076" y="287" type="curve" smooth="yes"/>
      <point x="1193" y="287"/>
      <point x="1299" y="471"/>
      <point x="1299" y="643" type="curve" smooth="yes"/>
      <point x="1299" y="936"/>
      <point x="1087" y="1125"/>
      <point x="793" y="1125" type="curve" smooth="yes"/>
      <point x="385" y="1125"/>
      <point x="220" y="765"/>
      <point x="220" y="529" type="curve" smooth="yes"/>
      <point x="220" y="160"/>
      <point x="480" y="-37"/>
      <point x="791" y="-37" type="curve" smooth="yes"/>
      <point x="942" y="-37"/>
      <point x="1095" y="1"/>
      <point x="1228" y="99" type="curve"/>
      <point x="1238" y="106" type="line"/>
      <point x="1296" y="-8" type="line"/>
      <point x="1289" y="-13" type="line"/>
      <point x="1165" y="-115"/>
      <point x="1006" y="-184"/>
      <point x="793" y="-184" type="curve" smooth="yes"/>
      <point x="359" y="-184"/>
      <point x="54" y="101"/>
      <point x="54" y="540" type="curve" smooth="yes"/>
      <point x="54" y="960"/>
      <point x="371" y="1274"/>
      <point x="794" y="1274" type="curve" smooth="yes"/>
      <point x="1168" y="1274"/>
      <point x="1458" y="1018"/>
    </contour>
  </outline>
</glyph>
<glyph name="B" format="1">
  <advance width="1249"/>
  <unicode hex="0042"/>
  <outline>
    <contour>
      <point x="149" y="0" type="line"/>
      <point x="685" y="0" type="line" smooth="yes"/>
      <point x="986" y="0"/>
      <point x="1183" y="133"/>
      <point x="1183" y="393" type="curve" smooth="yes"/>
      <point x="1183" y="551"/>
      <point x="1091" y="665"/>
      <point x="948" y="715" type="curve"/>
      <point x="1092" y="783"/>
      <point x="1135" y="919"/>
      <point x="1135" y="1000" type="curve" smooth="yes"/>
      <point x="1135" y="1254"/>
      <point x="946" y="1342"/>
      <point x="616" y="1342" type="curve" smooth="yes"/>
      <point x="149" y="1342" type="line"/>
    </contour>
    <contour>
      <point x="437" y="604" type="line"/>
      <point x="627" y="604" type="line" smooth="yes"/>
      <point x="812" y="604"/>
      <point x="895" y="554"/>
      <point x="895" y="412" type="curve" smooth="yes"/>
      <point x="895" y="270"/>
      <point x="810" y="220"/>
      <point x="633" y="220" type="curve" smooth="yes"/>
      <point x="437" y="220" type="line"/>
    </contour>
    <contour>
      <point x="437" y="1122" type="line"/>
      <point x="582" y="1122" type="line" smooth="yes"/>
      <point x="768" y="1122"/>
      <point x="855" y="1093"/>
      <point x="855" y="956" type="curve" smooth="yes"/>
      <point x="855" y="834"/>
      <point x="781" y="793"/>
      <point x="630" y="793" type="curve" smooth="yes"/>
      <point x="437" y="793" type="line"/>
    </contour>
  </outline>
</glyph>
<glyph name="C" format="1">
  <advance width="1166"/>
  <unicode hex="0043"/>
  <outline>
    <contour>
      <point x="731" y="-16" type="curve" smooth="yes"/>
      <point x="354" y="-16"/>
      <point x="90" y="240"/>
      <point x="90" y="677" type="curve" smooth="yes"/>
      <point x="90" y="1091"/>
      <point x="360" y="1358"/>
      <point x="735" y="1358" type="curve" smooth="yes"/>
      <point x="874" y="1358"/>
      <point x="1005" y="1328"/>
      <point x="1124" y="1249" type="curve"/>
      <point x="1041" y="1048" type="line"/>
      <point x="953" y="1097"/>
      <point x="880" y="1129"/>
      <point x="762" y="1129" type="curve" smooth="yes"/>
      <point x="543" y="1129"/>
      <point x="378" y="963"/>
      <point x="378" y="671" type="curve" smooth="yes"/>
      <point x="378" y="380"/>
      <point x="515" y="213"/>
      <point x="772" y="213" type="curve" smooth="yes"/>
      <point x="871" y="213"/>
      <point x="968" y="238"/>
      <point x="1062" y="293" type="curve"/>
      <point x="1098" y="75" type="line"/>
      <point x="974" y="13"/>
      <point x="876" y="-16"/>
    </contour>
    <contour>
      <point x="583" y="1342" type="line" smooth="yes"/>
    </contour>
    <contour>
      <point x="583" y="0" type="line" smooth="yes"/>
    </contour>
    <contour>
      <point x="583" y="1342" type="move" name="top"/>
    </contour>
    <contour>
      <point x="583" y="0" type="move" name="bottom"/>
    </contour>
  </outline>
</glyph>
<glyph name="E" format="1">
  <advance width="1084"/>
  <unicode hex="0045"/>
  <outline>
    <contour>
      <point x="437" y="1122" type="line"/>
      <point x="437" y="805" type="line"/>
      <point x="941" y="805" type="line"/>
      <point x="941" y="595" type="line"/>
      <point x="437" y="595" type="line"/>
      <point x="437" y="220" type="line"/>
      <point x="989" y="220" type="line"/>
      <point x="982" y="0" type="line"/>
      <point x="149" y="0" type="line"/>
      <point x="149" y="1342" type="line"/>
      <point x="979" y="1342" type="line"/>
      <point x="968" y="1122" type="line"/>
    </contour>
    <contour>
      <point x="555" y="1342" type="line" smooth="yes"/>
    </contour>
    <contour>
      <point x="555" y="0" type="line" smooth="yes"/>
    </contour>
    <contour>
      <point x="982" y="10" type="line" smooth="yes"/>
    </contour>
    <contour>
      <point x="555" y="1342" type="move" name="top"/>
    </contour>
    <contour>
      <point x="555" y="0" type="move" name="bottom"/>
    </contour>
    <contour>
      <point x="982" y="10" type="move" name="ogonek"/>
    </contour>
  </outline>
</glyph>
<glyph name="H" format="1">
  <advance width="1418"/>
  <unicode hex="0048"/>
  <outline>
    <contour>
      <point x="437" y="804" type="line"/>
      <point x="437" y="1342" type="line"/>
      <point x="149" y="1342" type="line"/>
      <point x="149" y="0" type="line"/>
      <point x="437" y="0" type="line"/>
      <point x="437" y="578" type="line"/>
      <point x="981" y="578" type="line"/>
      <point x="981" y="0" type="line"/>
      <point x="1269" y="0" type="line"/>
      <point x="1269" y="1342" type="line"/>
      <point x="981" y="1342" type="line"/>
      <point x="981" y="804" type="line"/>
    </contour>
    <contour>
      <point x="709" y="1342" type="move" name="top"/>
    </contour>
    <contour>
      <point x="709" y="671" type="move" name="center"/>
    </contour>
  </outline>
</glyph>
<glyph name="I" format="1">
  <advance width="702"/>
  <unicode hex="0049"/>
  <outline>
    <contour>
      <point x="149" y="0" type="line"/>
      <point x="149" y="1342" type="line"/>
      <point x="437" y="1342" type="line"/>
      <point x="437" y="0" type="line"/>
    </contour>
    <contour>
      <point x="316" y="1342" type="line" smooth="yes"/>
    </contour>
    <contour>
      <point x="553" y="10" type="line" smooth="yes"/>
    </contour>
    <contour>
      <point x="316" y="1342" type="move" name="top"/>
    </contour>
    <contour>
      <point x="553" y="10" type="move" name="ogonek"/>
    </contour>
  </outline>
</glyph>
<glyph name="K" format="1">
  <advance width="1264"/>
  <unicode hex="004B"/>
  <outline>
    <contour>
      <point x="905" y="1342"/>
      <point x="473" y="825"/>
      <point x="437" y="781" type="curve"/>
      <point x="437" y="1342" type="line"/>
      <point x="149" y="1342" type="line"/>
      <point x="149" y="0" type="line"/>
      <point x="437" y="0" type="line"/>
      <point x="437" y="532" type="line"/>
      <point x="437" y="532"/>
      <point x="518" y="606"/>
      <point x="518" y="606" type="curve"/>
      <point x="911" y="0" type="line"/>
      <point x="1247" y="0" type="line"/>
      <point x="745" y="738" type="line"/>
      <point x="1237" y="1342" type="line"/>
      <point x="905" y="1342" type="line"/>
    </contour>
    <contour>
      <point x="626" y="1342" type="move" name="top"/>
    </contour>
    <contour>
      <point x="626" y="0" type="move" name="bottom"/>
    </contour>
  </outline>
</glyph>
<glyph name="M" format="1">
  <advance width="1674"/>
  <unicode hex="004D"/>
  <outline>
    <contour>
      <point x="1236" y="1342" type="line"/>
      <point x="1525" y="1342" type="line"/>
      <point x="1525" y="0" type="line"/>
      <point x="1245" y="0" type="line"/>
      <point x="1245" y="500" type="line"/>
      <point x="1251" y="810" type="line"/>
      <point x="940" y="109" type="line"/>
      <point x="720" y="109" type="line"/>
      <point x="423" y="816" type="line"/>
      <point x="429" y="497" type="line"/>
      <point x="429" y="0" type="line"/>
      <point x="149" y="0" type="line"/>
      <point x="149" y="1342" type="line"/>
      <point x="443" y="1342" type="line"/>
      <point x="837" y="432" type="line"/>
    </contour>
  </outline>
</glyph>
<glyph name="O" format="1">
  <advance width="1478"/>
  <unicode hex="004F"/>
  <outline>
    <contour>
      <point x="738" y="212" type="curve" smooth="yes"/>
      <point x="490" y="212"/>
      <point x="378" y="395"/>
      <point x="378" y="669" type="curve" smooth="yes"/>
      <point x="378" y="948"/>
      <point x="492" y="1129"/>
      <point x="739" y="1129" type="curve" smooth="yes"/>
      <point x="985" y="1129"/>
      <point x="1100" y="948"/>
      <point x="1100" y="669" type="curve" smooth="yes"/>
      <point x="1100" y="395"/>
      <point x="986" y="212"/>
    </contour>
    <contour>
      <point x="1388" y="671" type="curve" smooth="yes"/>
      <point x="1388" y="1105"/>
      <point x="1129" y="1359"/>
      <point x="738" y="1359" type="curve" smooth="yes"/>
      <point x="347" y="1359"/>
      <point x="90" y="1107"/>
      <point x="90" y="671" type="curve" smooth="yes"/>
      <point x="90" y="239"/>
      <point x="344" y="-16"/>
      <point x="737" y="-16" type="curve" smooth="yes"/>
      <point x="1129" y="-16"/>
      <point x="1388" y="241"/>
    </contour>
    <contour>
      <point x="739" y="1342" type="line" smooth="yes"/>
    </contour>
    <contour>
      <point x="739" y="1342" type="move" name="top"/>
    </contour>
  </outline>
</glyph>
<glyph name="R" format="1">
  <advance width="1291"/>
  <unicode hex="0052"/>
  <outline>
    <contour>
      <point x="437" y="758" type="line"/>
      <point x="437" y="1122" type="line"/>
      <point x="681" y="1122" type="line" smooth="yes"/>
      <point x="845" y="1122"/>
      <point x="917" y="1070"/>
      <point x="917" y="949" type="curve" smooth="yes"/>
      <point x="917" y="810"/>
      <point x="852" y="758"/>
      <point x="671" y="758" type="curve" smooth="yes"/>
    </contour>
    <contour>
      <point x="437" y="544" type="line"/>
      <point x="479" y="544"/>
      <point x="612" y="544"/>
      <point x="617" y="544" type="curve" smooth="yes"/>
      <point x="650" y="544"/>
      <point x="672" y="544"/>
      <point x="689" y="543" type="curve"/>
      <point x="704" y="514"/>
      <point x="759" y="395"/>
      <point x="789" y="331" type="curve" smooth="yes"/>
      <point x="952" y="0" type="line"/>
      <point x="1255" y="0" type="line"/>
      <point x="1058" y="407" type="line" smooth="yes"/>
      <point x="1022" y="481"/>
      <point x="985" y="555"/>
      <point x="948" y="603" type="curve"/>
      <point x="1095" y="662"/>
      <point x="1205" y="770"/>
      <point x="1205" y="947" type="curve" smooth="yes"/>
      <point x="1205" y="1258"/>
      <point x="974" y="1342"/>
      <point x="668" y="1342" type="curve" smooth="yes"/>
      <point x="149" y="1342" type="line"/>
      <point x="149" y="0" type="line"/>
      <point x="437" y="0" type="line"/>
    </contour>
    <contour>
      <point x="668" y="1342" type="move" name="top"/>
    </contour>
    <contour>
      <point x="668" y="0" type="move" name="bottom"/>
    </contour>
  </outline>
</glyph>
<glyph name="S" format="1">
  <advance width="1086"/>
  <unicode hex="0053"/>
  <outline>
    <contour>
      <point x="808" y="-17"/>
      <point x="1012" y="119"/>
      <point x="1012" y="381" type="curve" smooth="yes"/>
      <point x="1012" y="598"/>
      <point x="907" y="705"/>
      <point x="672" y="783" type="curve"/>
      <point x="464" y="853" type="line" smooth="yes"/>
      <point x="403" y="873"/>
      <point x="366" y="915"/>
      <point x="366" y="980" type="curve" smooth="yes"/>
      <point x="366" y="1087"/>
      <point x="440" y="1128"/>
      <point x="573" y="1128" type="curve" smooth="yes"/>
      <point x="692" y="1128"/>
      <point x="804" y="1088"/>
      <point x="896" y="1048" type="curve"/>
      <point x="977" y="1255" type="line"/>
      <point x="856" y="1324"/>
      <point x="722" y="1358"/>
      <point x="562" y="1358" type="curve" smooth="yes"/>
      <point x="294" y="1358"/>
      <point x="97" y="1227"/>
      <point x="97" y="975" type="curve" smooth="yes"/>
      <point x="97" y="785"/>
      <point x="201" y="670"/>
      <point x="363" y="617" type="curve" smooth="yes"/>
      <point x="587" y="544" type="line" smooth="yes"/>
      <point x="684" y="512"/>
      <point x="739" y="464"/>
      <point x="739" y="385" type="curve" smooth="yes"/>
      <point x="739" y="262"/>
      <point x="670" y="210"/>
      <point x="529" y="210" type="curve" smooth="yes"/>
      <point x="397" y="210"/>
      <point x="229" y="251"/>
      <point x="147" y="300" type="curve"/>
      <point x="82" y="82" type="line"/>
      <point x="198" y="16"/>
      <point x="343" y="-17"/>
      <point x="519" y="-17" type="curve" smooth="yes"/>
    </contour>
    <contour>
      <point x="546" y="1342" type="move" name="top"/>
    </contour>
    <contour>
      <point x="546" y="0" type="move" name="bottom"/>
    </contour>
  </outline>
</glyph>
<glyph name="U" format="1">
  <advance width="1376"/>
  <unicode hex="0055"/>
  <outline>
    <contour>
      <point x="1035" y="-17"/>
      <point x="1232" y="172"/>
      <point x="1232" y="484" type="curve" smooth="yes"/>
      <point x="1232" y="1342" type="line"/>
      <point x="944" y="1342" type="line"/>
      <point x="944" y="505" type="line" smooth="yes"/>
      <point x="944" y="310"/>
      <point x="870" y="213"/>
      <point x="688" y="213" type="curve" smooth="yes"/>
      <point x="512" y="213"/>
      <point x="432" y="309"/>
      <point x="432" y="504" type="curve" smooth="yes"/>
      <point x="432" y="1342" type="line"/>
      <point x="144" y="1342" type="line"/>
      <point x="144" y="485" type="line" smooth="yes"/>
      <point x="144" y="170"/>
      <point x="340" y="-17"/>
      <point x="688" y="-17" type="curve" smooth="yes"/>
    </contour>
    <contour>
      <point x="691" y="1342" type="move" name="top"/>
    </contour>
    <contour>
      <point x="1230" y="10" type="move" name="ogonek"/>
    </contour>
  </outline>
</glyph>
<glyph name="V" format="1">
  <advance width="1185"/>
  <unicode hex="0056"/>
  <outline>
    <contour>
      <point x="760" y="0" type="line"/>
      <point x="1188" y="1342" type="line"/>
      <point x="882" y="1342" type="line"/>
      <point x="680" y="608" type="line"/>
      <point x="600" y="328" type="line"/>
      <point x="518" y="607" type="line"/>
      <point x="305" y="1342" type="line"/>
      <point x="-3" y="1342" type="line"/>
      <point x="432" y="0" type="line"/>
    </contour>
  </outline>
</glyph>
<glyph name="W" format="1">
  <advance width="1890"/>
  <unicode hex="0057"/>
  <outline>
    <contour>
      <point x="537" y="376" type="line"/>
      <point x="300" y="1342" type="line"/>
      <point x="18" y="1342" type="line"/>
      <point x="390" y="0" type="line"/>
      <point x="660" y="0" type="line"/>
      <point x="946" y="963" type="line"/>
      <point x="1211" y="0" type="line"/>
      <point x="1483" y="0" type="line"/>
      <point x="1872" y="1342" type="line"/>
      <point x="1591" y="1342" type="line"/>
      <point x="1341" y="373" type="line"/>
      <point x="1075" y="1336" type="line"/>
      <point x="816" y="1336" type="line"/>
    </contour>
    <contour>
      <point x="945" y="1342" type="move" name="top"/>
    </contour>
  </outline>
</glyph>
<glyph name="X" format="1">
  <advance width="1263"/>
  <unicode hex="0058"/>
  <outline>
    <contour>
      <point x="791" y="682" type="line"/>
      <point x="1227" y="1342" type="line"/>
      <point x="936" y="1342" type="line"/>
      <point x="639" y="886" type="line"/>
      <point x="350" y="1342" type="line"/>
      <point x="45" y="1342" type="line"/>
      <point x="472" y="687" type="line"/>
      <point x="13" y="0" type="line"/>
      <point x="309" y="0" type="line"/>
      <point x="627" y="456" type="line"/>
      <point x="937" y="0" type="line"/>
      <point x="1249" y="0" type="line"/>
    </contour>
  </outline>
</glyph>
<glyph name="Y" format="1">
  <advance width="1157"/>
  <unicode hex="0059"/>
  <outline>
    <contour>
      <point x="297" y="1342" type="line"/>
      <point x="-6" y="1342" type="line"/>
      <point x="437" y="532" type="line"/>
      <point x="437" y="0" type="line"/>
      <point x="719" y="0" type="line"/>
      <point x="719" y="536" type="line"/>
      <point x="1163" y="1342" type="line"/>
      <point x="865" y="1342" type="line"/>
      <point x="578" y="786" type="line"/>
    </contour>
    <contour>
      <point x="579" y="1342" type="move" name="top"/>
    </contour>
  </outline>
</glyph>
<glyph name="Z" format="1">
  <advance width="1109"/>
  <unicode hex="005A"/>
  <outline>
    <contour>
      <point x="103" y="1342" type="line"/>
      <point x="103" y="1122" type="line"/>
      <point x="693" y="1122" type="line"/>
      <point x="81" y="172" type="line"/>
      <point x="81" y="0" type="line"/>
      <point x="1039" y="0" type="line"/>
      <point x="1039" y="220" type="line"/>
      <point x="463" y="220" type="line"/>
      <point x="1033" y="1150" type="line"/>
      <point x="1033" y="1342" type="line"/>
    </contour>
    <contour>
      <point x="576" y="1342" type="move" name="top"/>
    </contour>
  </outline>
</glyph>
<glyph name="underscore" format="1">
  <advance width="1012"/>
  <unicode hex="005F"/>
  <outline>
    <contour>
      <point x="59" y="-273" type="line"/>
      <point x="59" y="-98" type="line"/>
      <point x="973" y="-98" type="line"/>
      <point x="973" y="-273" type="line"/>
    </contour>
  </outline>
</glyph>
<glyph name="b" format="1">
  <advance width="1147"/>
  <unicode hex="0062"/>
  <outline>
    <contour>
      <point x="606" y="845" type="curve" smooth="yes"/>
      <point x="731" y="845"/>
      <point x="815" y="744"/>
      <point x="815" y="516" type="curve" smooth="yes"/>
      <point x="815" y="290"/>
      <point x="728" y="179"/>
      <point x="603" y="179" type="curve" smooth="yes"/>
      <point x="461" y="179"/>
      <point x="381" y="277"/>
      <point x="381" y="527" type="curve"/>
      <point x="383" y="757"/>
      <point x="471" y="845"/>
    </contour>
    <contour>
      <point x="130" y="1" type="line"/>
      <point x="351" y="1" type="line"/>
      <point x="371" y="127" type="line"/>
      <point x="425" y="50"/>
      <point x="527" y="-18"/>
      <point x="660" y="-18" type="curve" smooth="yes"/>
      <point x="913" y="-18"/>
      <point x="1071" y="202"/>
      <point x="1071" y="519" type="curve" smooth="yes"/>
      <point x="1071" y="819"/>
      <point x="923" y="1041"/>
      <point x="664" y="1041" type="curve" smooth="yes"/>
      <point x="520" y="1041"/>
      <point x="431" y="969"/>
      <point x="380" y="908" type="curve"/>
      <point x="382" y="974"/>
      <point x="386" y="1028"/>
      <point x="386" y="1079" type="curve" smooth="yes"/>
      <point x="386" y="1393" type="line"/>
      <point x="130" y="1376" type="line"/>
    </contour>
  </outline>
</glyph>
<glyph name="c" format="1">
  <advance width="900"/>
  <unicode hex="0063"/>
  <outline>
    <contour>
      <point x="554" y="-18" type="curve" smooth="yes"/>
      <point x="259" y="-18"/>
      <point x="72" y="170"/>
      <point x="72" y="516" type="curve" smooth="yes"/>
      <point x="72" y="856"/>
      <point x="280" y="1041"/>
      <point x="557" y="1041" type="curve" smooth="yes"/>
      <point x="675" y="1041"/>
      <point x="772" y="1013"/>
      <point x="858" y="959" type="curve"/>
      <point x="798" y="781" type="line"/>
      <point x="760" y="797"/>
      <point x="708" y="840"/>
      <point x="574" y="840" type="curve"/>
      <point x="430" y="833"/>
      <point x="328" y="735"/>
      <point x="328" y="513" type="curve" smooth="yes"/>
      <point x="328" y="292"/>
      <point x="427" y="190"/>
      <point x="572" y="183" type="curve" smooth="yes"/>
      <point x="662" y="178"/>
      <point x="744" y="207"/>
      <point x="815" y="247" type="curve"/>
      <point x="848" y="64" type="line"/>
      <point x="812" y="45"/>
      <point x="745" y="-18"/>
    </contour>
    <contour>
      <point x="452" y="1016" type="line" smooth="yes"/>
    </contour>
    <contour>
      <point x="452" y="0" type="line" smooth="yes"/>
    </contour>
    <contour>
      <point x="456" y="1016" type="move" name="top"/>
    </contour>
    <contour>
      <point x="456" y="0" type="move" name="bottom"/>
    </contour>
  </outline>
</glyph>
<glyph name="f" format="1">
  <advance width="710"/>
  <unicode hex="0066"/>
  <outline>
    <contour>
      <point x="194" y="0" type="line"/>
      <point x="450" y="0" type="line"/>
      <point x="450" y="839" type="line"/>
      <point x="678" y="839" type="line"/>
      <point x="678" y="1016" type="line"/>
      <point x="450" y="1016" type="line"/>
      <point x="450" y="1074" type="line" smooth="yes"/>
      <point x="450" y="1201"/>
      <point x="499" y="1219"/>
      <point x="581" y="1219" type="curve" smooth="yes"/>
      <point x="621" y="1219"/>
      <point x="670" y="1213"/>
      <point x="700" y="1208" type="curve"/>
      <point x="723" y="1401" type="line"/>
      <point x="656" y="1414"/>
      <point x="594" y="1420"/>
      <point x="535" y="1420" type="curve" smooth="yes"/>
      <point x="340" y="1420"/>
      <point x="194" y="1350"/>
      <point x="194" y="1061" type="curve" smooth="yes"/>
      <point x="194" y="1015" type="line"/>
      <point x="53" y="998" type="line"/>
      <point x="48" y="839" type="line"/>
      <point x="194" y="839" type="line"/>
    </contour>
  </outline>
</glyph>
<glyph name="j" format="1">
  <advance width="550"/>
  <unicode hex="006A"/>
  <outline>
    <contour>
      <point x="-20" y="-379" type="line"/>
      <point x="40" y="-379" type="line" smooth="yes"/>
      <point x="358" y="-379"/>
      <point x="420" y="-240"/>
      <point x="420" y="40" type="curve" smooth="yes"/>
      <point x="420" y="1017" type="line"/>
      <point x="167" y="1017" type="line"/>
      <point x="167" y="-4" type="line" smooth="yes"/>
      <point x="167" y="-149"/>
      <point x="154" y="-187"/>
      <point x="13" y="-187" type="curve" smooth="yes"/>
      <point x="-49" y="-187" type="line"/>
    </contour>
    <contour>
      <point x="167" y="1139" type="line"/>
      <point x="420" y="1139" type="line"/>
      <point x="420" y="1357" type="line"/>
      <point x="167" y="1357" type="line"/>
    </contour>
  </outline>
</glyph>
<glyph name="k" format="1">
  <advance width="1100"/>
  <unicode hex="006B"/>
  <outline>
    <contour>
      <point x="130" y="1376" type="line"/>
      <point x="386" y="1392" type="line"/>
      <point x="386" y="785" type="line"/>
      <point x="381" y="582" type="line"/>
      <point x="743" y="1016" type="line"/>
      <point x="1066" y="1016" type="line"/>
      <point x="677" y="555" type="line"/>
      <point x="1094" y="0" type="line"/>
      <point x="782" y="0" type="line"/>
      <point x="467" y="422" type="line"/>
      <point x="386" y="354" type="line"/>
      <point x="386" y="0" type="line"/>
      <point x="130" y="0" type="line"/>
    </contour>
    <contour>
      <point x="552" y="0" type="line" smooth="yes"/>
    </contour>
    <contour>
      <point x="552" y="0" type="move" name="bottom"/>
    </contour>
  </outline>
</glyph>
<glyph name="n" format="1">
  <advance width="1148"/>
  <unicode hex="006E"/>
  <outline>
    <contour>
      <point x="130" y="0" type="line"/>
      <point x="386" y="0" type="line"/>
      <point x="386" y="496" type="line" smooth="yes"/>
      <point x="386" y="582"/>
      <point x="389" y="656"/>
      <point x="402" y="713" type="curve"/>
      <point x="438" y="789"/>
      <point x="520" y="844"/>
      <point x="618" y="844" type="curve" smooth="yes"/>
      <point x="744" y="844"/>
      <point x="774" y="761"/>
      <point x="775" y="612" type="curve"/>
      <point x="775" y="0" type="line"/>
      <point x="1031" y="0" type="line"/>
      <point x="1031" y="640" type="line" smooth="yes"/>
      <point x="1031" y="891"/>
      <point x="918" y="1041"/>
      <point x="683" y="1041" type="curve" smooth="yes"/>
      <point x="542" y="1041"/>
      <point x="442" y="979"/>
      <point x="362" y="902" type="curve"/>
      <point x="338" y="1016" type="line"/>
      <point x="130" y="1016" type="line"/>
    </contour>
    <contour>
      <point x="577" y="1016" type="line" smooth="yes"/>
    </contour>
    <contour>
      <point x="577" y="0" type="line" smooth="yes"/>
    </contour>
    <contour>
      <point x="582" y="1016" type="move" name="top"/>
    </contour>
    <contour>
      <point x="582" y="0" type="move" name="bottom"/>
    </contour>
  </outline>
</glyph>
<glyph name="r" format="1">
  <advance width="740"/>
  <unicode hex="0072"/>
  <outline>
    <contour>
      <point x="130" y="1016" type="line"/>
      <point x="346" y="1016" type="line"/>
      <point x="374" y="860" type="line"/>
      <point x="437" y="950"/>
      <point x="540" y="1021"/>
      <point x="658" y="1021" type="curve" smooth="yes"/>
      <point x="681" y="1021"/>
      <point x="702" y="1021"/>
      <point x="729" y="1015" type="curve"/>
      <point x="725" y="799" type="line"/>
      <point x="692" y="805"/>
      <point x="667" y="807"/>
      <point x="641" y="807" type="curve" smooth="yes"/>
      <point x="469" y="807"/>
      <point x="386" y="707"/>
      <point x="386" y="551" type="curve" smooth="yes"/>
      <point x="386" y="0" type="line"/>
      <point x="130" y="0" type="line"/>
    </contour>
    <contour>
      <point x="366" y="1016" type="line" smooth="yes"/>
    </contour>
    <contour>
      <point x="366" y="0" type="line" smooth="yes"/>
    </contour>
    <contour>
      <point x="365" y="1016" type="move" name="top"/>
    </contour>
    <contour>
      <point x="365" y="0" type="move" name="bottom"/>
    </contour>
  </outline>
</glyph>
<glyph name="t" format="1">
  <advance width="790"/>
  <unicode hex="0074"/>
  <outline>
    <contour>
      <point x="640" y="-13"/>
      <point x="737" y="17"/>
      <point x="745" y="20" type="curve"/>
      <point x="712" y="191" type="line"/>
      <point x="707" y="188"/>
      <point x="648" y="172"/>
      <point x="589" y="172" type="curve" smooth="yes"/>
      <point x="490" y="172"/>
      <point x="428" y="222"/>
      <point x="428" y="386" type="curve" smooth="yes"/>
      <point x="428" y="852" type="line"/>
      <point x="703" y="852" type="line"/>
      <point x="703" y="1016" type="line"/>
      <point x="428" y="1016" type="line"/>
      <point x="428" y="1268" type="line"/>
      <point x="246" y="1268" type="line"/>
      <point x="188" y="1016" type="line"/>
      <point x="25" y="1004" type="line"/>
      <point x="11" y="853" type="line"/>
      <point x="172" y="853" type="line"/>
      <point x="172" y="392" type="line"/>
      <point x="173" y="126"/>
      <point x="269" y="-13"/>
      <point x="536" y="-13" type="curve" smooth="yes"/>
    </contour>
    <contour>
      <point x="353" y="508" type="move" name="center"/>
    </contour>
    <contour>
      <point x="353" y="0" type="move" name="bottom"/>
    </contour>
  </outline>
</glyph>
<glyph name="v" format="1">
  <advance width="1038"/>
  <unicode hex="0076"/>
  <outline>
    <contour>
      <point x="533" y="275" type="curve"/>
      <point x="547" y="331"/>
      <point x="577" y="453"/>
      <point x="584" y="471" type="curve"/>
      <point x="760" y="1016" type="line"/>
      <point x="1028" y="1016" type="line"/>
      <point x="653" y="0" type="line"/>
      <point x="407" y="0" type="line"/>
      <point x="10" y="1016" type="line"/>
      <point x="281" y="1016" type="line"/>
      <point x="471" y="472" type="line" smooth="yes"/>
      <point x="477" y="455"/>
      <point x="514" y="338"/>
    </contour>
  </outline>
</glyph>
<glyph name="w" format="1">
  <advance width="1595"/>
  <unicode hex="0077"/>
  <outline>
    <contour>
      <point x="798" y="1016" type="line" smooth="yes"/>
    </contour>
    <contour>
      <point x="338" y="0" type="line"/>
      <point x="582" y="0" type="line"/>
      <point x="797" y="749" type="line"/>
      <point x="839" y="599"/>
      <point x="980" y="74"/>
      <point x="999" y="0" type="curve"/>
      <point x="1245" y="0" type="line"/>
      <point x="1548" y="1016" type="line"/>
      <point x="1302" y="1016" type="line"/>
      <point x="1117" y="300" type="line"/>
      <point x="1077" y="446"/>
      <point x="928" y="1004"/>
      <point x="928" y="1016" type="curve"/>
      <point x="674" y="1016" type="line"/>
      <point x="475" y="298" type="line"/>
      <point x="296" y="1016" type="line"/>
      <point x="47" y="1016" type="line"/>
    </contour>
    <contour>
      <point x="798" y="1016" type="move" name="top"/>
    </contour>
  </outline>
</glyph>
<glyph name="x" format="1">
  <advance width="1057"/>
  <unicode hex="0078"/>
  <outline>
    <contour>
      <point x="529" y="688" type="line"/>
      <point x="745" y="1017" type="line"/>
      <point x="1029" y="1017" type="line"/>
      <point x="690" y="521" type="line"/>
      <point x="1040" y="0" type="line"/>
      <point x="749" y="0" type="line"/>
      <point x="529" y="355" type="line"/>
      <point x="304" y="0" type="line"/>
      <point x="17" y="0" type="line"/>
      <point x="370" y="520" type="line"/>
      <point x="34" y="1017" type="line"/>
      <point x="322" y="1017" type="line"/>
    </contour>
  </outline>
</glyph>
<glyph name="y" format="1">
  <advance width="1048"/>
  <unicode hex="0079"/>
  <outline>
    <contour>
      <point x="205" y="-411" type="curve" smooth="yes"/>
      <point x="164" y="-411"/>
      <point x="122" y="-409"/>
      <point x="74" y="-403" type="curve"/>
      <point x="61" y="-201" type="line"/>
      <point x="105" y="-208"/>
      <point x="141" y="-209"/>
      <point x="176" y="-209" type="curve" smooth="yes"/>
      <point x="278" y="-209"/>
      <point x="333" y="-178"/>
      <point x="375" y="-68" type="curve" smooth="yes"/>
      <point x="387" y="-39"/>
      <point x="395" y="-11"/>
      <point x="408" y="28" type="curve"/>
      <point x="14" y="1016" type="line"/>
      <point x="285" y="1016" type="line"/>
      <point x="530" y="330" type="line"/>
      <point x="757" y="1016" type="line"/>
      <point x="1028" y="1016" type="line"/>
      <point x="1024" y="1002"/>
      <point x="619" y="-90"/>
      <point x="615" y="-99" type="curve" smooth="yes"/>
      <point x="529" y="-323"/>
      <point x="406" y="-411"/>
    </contour>
    <contour>
      <point x="517" y="1016" type="line" smooth="yes"/>
    </contour>
    <contour>
      <point x="517" y="1016" type="move" name="top"/>
    </contour>
  </outline>
</glyph>
<glyph name="z" format="1">
  <advance width="902"/>
  <unicode hex="007A"/>
  <outline>
    <contour>
      <point x="98" y="1016" type="line"/>
      <point x="830" y="1016" type="line"/>
      <point x="830" y="840" type="line"/>
      <point x="388" y="192" type="line"/>
      <point x="846" y="192" type="line"/>
      <point x="846" y="0" type="line"/>
      <point x="76" y="0" type="line"/>
      <point x="76" y="158" type="line"/>
      <point x="543" y="832" type="line"/>
      <point x="98" y="832" type="line"/>
    </contour>
    <contour>
      <point x="449" y="1016" type="line" smooth="yes"/>
    </contour>
    <contour>
      <point x="449" y="1016" type="move" name="top"/>
    </contour>
  </outline>
</glyph>
<glyph name="currency" format="1">
  <advance width="1017"/>
  <unicode hex="00A4"/>
  <outline>
    <contour>
      <point x="519" y="434" type="curve" smooth="yes"/>
      <point x="651" y="434"/>
      <point x="757" y="541"/>
      <point x="757" y="675" type="curve" smooth="yes"/>
      <point x="757" y="809"/>
      <point x="650" y="917"/>
      <point x="519" y="917" type="curve" smooth="yes"/>
      <point x="389" y="917"/>
      <point x="283" y="808"/>
      <point x="283" y="675" type="curve" smooth="yes"/>
      <point x="283" y="541"/>
      <point x="389" y="434"/>
    </contour>
    <contour>
      <point x="999" y="308" type="line"/>
      <point x="906" y="210" type="line"/>
      <point x="739" y="366" type="line"/>
      <point x="677" y="320"/>
      <point x="602" y="291"/>
      <point x="519" y="291" type="curve" smooth="yes"/>
      <point x="434" y="291"/>
      <point x="359" y="317"/>
      <point x="296" y="365" type="curve"/>
      <point x="136" y="211" type="line"/>
      <point x="38" y="306" type="line"/>
      <point x="203" y="464" type="line"/>
      <point x="164" y="525"/>
      <point x="139" y="597"/>
      <point x="139" y="675" type="curve" smooth="yes"/>
      <point x="139" y="752"/>
      <point x="162" y="822"/>
      <point x="203" y="887" type="curve"/>
      <point x="37" y="1046" type="line"/>
      <point x="136" y="1142" type="line"/>
      <point x="298" y="987" type="line"/>
      <point x="359" y="1032"/>
      <point x="437" y="1060"/>
      <point x="519" y="1060" type="curve" smooth="yes"/>
      <point x="603" y="1060"/>
      <point x="675" y="1034"/>
      <point x="739" y="985" type="curve"/>
      <point x="906" y="1142" type="line"/>
      <point x="1000" y="1045" type="line"/>
      <point x="835" y="887" type="line"/>
      <point x="874" y="826"/>
      <point x="899" y="753"/>
      <point x="899" y="675" type="curve" smooth="yes"/>
      <point x="899" y="597"/>
      <point x="877" y="528"/>
      <point x="836" y="464" type="curve"/>
    </contour>
  </outline>
</glyph>
<glyph name="multiply" format="1">
  <advance width="1230"/>
  <unicode hex="00D7"/>
  <outline>
    <contour>
      <point x="903" y="130" type="line"/>
      <point x="639" y="397" type="line"/>
      <point x="373" y="130" type="line"/>
      <point x="241" y="271" type="line"/>
      <point x="499" y="538" type="line"/>
      <point x="241" y="810" type="line"/>
      <point x="373" y="947" type="line"/>
      <point x="639" y="678" type="line"/>
      <point x="902" y="947" type="line"/>
      <point x="1038" y="809" type="line"/>
      <point x="777" y="538" type="line"/>
      <point x="842" y="473"/>
      <point x="968" y="342"/>
      <point x="1031" y="279" type="curve" smooth="yes"/>
      <point x="1038" y="272" type="line"/>
    </contour>
  </outline>
</glyph>
<glyph name="eth" format="1">
  <advance width="1075"/>
  <unicode hex="00F0"/>
  <outline>
    <contour>
      <point x="564" y="179" type="curve" smooth="yes"/>
      <point x="726" y="179"/>
      <point x="818" y="278"/>
      <point x="818" y="430" type="curve" smooth="yes"/>
      <point x="818" y="582"/>
      <point x="723" y="688"/>
      <point x="558" y="688" type="curve" smooth="yes"/>
      <point x="393" y="688"/>
      <point x="302" y="589"/>
      <point x="302" y="434" type="curve" smooth="yes"/>
      <point x="302" y="285"/>
      <point x="399" y="179"/>
    </contour>
    <contour>
      <point x="557" y="-17" type="curve" smooth="yes"/>
      <point x="267" y="-17"/>
      <point x="69" y="167"/>
      <point x="69" y="433" type="curve" smooth="yes"/>
      <point x="69" y="691"/>
      <point x="247" y="862"/>
      <point x="515" y="862" type="curve" smooth="yes"/>
      <point x="552" y="862"/>
      <point x="599" y="852"/>
      <point x="633" y="842" type="curve"/>
      <point x="595" y="890"/>
      <point x="508" y="990"/>
      <point x="476" y="1025" type="curve"/>
      <point x="253" y="936" type="line"/>
      <point x="192" y="1105" type="line"/>
      <point x="350" y="1169" type="line"/>
      <point x="165" y="1377" type="line"/>
      <point x="454" y="1377" type="line"/>
      <point x="558" y="1255" type="line"/>
      <point x="798" y="1353" type="line"/>
      <point x="861" y="1183" type="line"/>
      <point x="680" y="1110" type="line"/>
      <point x="780" y="996"/>
      <point x="875" y="889"/>
      <point x="947" y="770" type="curve"/>
      <point x="1003" y="675"/>
      <point x="1040" y="557"/>
      <point x="1041" y="424" type="curve"/>
      <point x="1041" y="146"/>
      <point x="851" y="-17"/>
    </contour>
  </outline>
</glyph>
<glyph name="oslash" format="1">
  <advance width="1039"/>
  <unicode hex="00F8"/>
  <outline>
    <contour>
      <point x="531" y="164" type="curve" smooth="yes"/>
      <point x="683" y="164"/>
      <point x="766" y="291"/>
      <point x="766" y="500" type="curve" smooth="yes"/>
      <point x="766" y="615"/>
      <point x="743" y="705"/>
      <point x="695" y="765" type="curve"/>
      <point x="443" y="181" type="line"/>
      <point x="468" y="170"/>
      <point x="498" y="164"/>
    </contour>
    <contour>
      <point x="372" y="248" type="curve"/>
      <point x="624" y="834" type="line"/>
      <point x="597" y="847"/>
      <point x="567" y="853"/>
      <point x="530" y="853" type="curve" smooth="yes"/>
      <point x="379" y="853"/>
      <point x="293" y="729"/>
      <point x="293" y="516" type="curve" smooth="yes"/>
      <point x="293" y="400"/>
      <point x="319" y="307"/>
    </contour>
    <contour>
      <point x="276" y="-203" type="line"/>
      <point x="203" y="-165" type="line"/>
      <point x="291" y="43" type="line"/>
      <point x="136" y="128"/>
      <point x="54" y="299"/>
      <point x="54" y="510" type="curve" smooth="yes"/>
      <point x="54" y="815"/>
      <point x="221" y="1034"/>
      <point x="533" y="1034" type="curve" smooth="yes"/>
      <point x="596" y="1034"/>
      <point x="648" y="1026"/>
      <point x="700" y="1010" type="curve"/>
      <point x="785" y="1177" type="line"/>
      <point x="865" y="1152" type="line"/>
      <point x="779" y="975" type="line"/>
      <point x="928" y="889"/>
      <point x="1006" y="721"/>
      <point x="1006" y="510" type="curve" smooth="yes"/>
      <point x="1006" y="212"/>
      <point x="840" y="-14"/>
      <point x="529" y="-14" type="curve" smooth="yes"/>
      <point x="469" y="-14"/>
      <point x="416" y="-6"/>
      <point x="367" y="9" type="curve"/>
    </contour>
    <contour>
      <point x="520" y="1016" type="line" smooth="yes"/>
    </contour>
    <contour>
      <point x="520" y="1016" type="move" name="top"/>
    </contour>
  </outline>
</glyph>
<glyph name="Hbar" format="1">
  <advance width="1311"/>
  <unicode hex="0126"/>
  <outline>
    <contour>
      <point x="367" y="788" type="line"/>
      <point x="962" y="788" type="line"/>
      <point x="962" y="1068" type="line"/>
      <point x="367" y="1068" type="line"/>
    </contour>
    <contour>
      <point x="110" y="1205" type="line"/>
      <point x="110" y="1335" type="line"/>
      <point x="367" y="1335" type="line"/>
      <point x="367" y="1205" type="line"/>
      <point x="962" y="1205" type="line"/>
      <point x="962" y="1335" type="line"/>
      <point x="1220" y="1335" type="line"/>
      <point x="1220" y="1205" type="line"/>
      <point x="1295" y="1205" type="line"/>
      <point x="1295" y="1068" type="line"/>
      <point x="1220" y="1068" type="line"/>
      <point x="1220" y="0" type="line"/>
      <point x="962" y="0" type="line"/>
      <point x="962" y="595" type="line"/>
      <point x="367" y="595" type="line"/>
      <point x="367" y="0" type="line"/>
      <point x="110" y="0" type="line"/>
      <point x="110" y="1068" type="line"/>
      <point x="35" y="1068" type="line"/>
      <point x="35" y="1205" type="line"/>
    </contour>
  </outline>
</glyph>
<glyph name="hbar" format="1">
  <advance width="1042"/>
  <unicode hex="0127"/>
  <outline>
    <contour>
      <point x="89" y="1249" type="line"/>
      <point x="89" y="1369" type="line"/>
      <point x="335" y="1387" type="line"/>
      <point x="335" y="1249" type="line"/>
      <point x="595" y="1249" type="line"/>
      <point x="595" y="1108" type="line"/>
      <point x="335" y="1108" type="line"/>
      <point x="335" y="918" type="line"/>
      <point x="413" y="993"/>
      <point x="517" y="1034"/>
      <point x="641" y="1034" type="curve" smooth="yes"/>
      <point x="832" y="1034"/>
      <point x="980" y="922"/>
      <point x="980" y="615" type="curve" smooth="yes"/>
      <point x="980" y="0" type="line"/>
      <point x="734" y="0" type="line"/>
      <point x="734" y="605" type="line" smooth="yes"/>
      <point x="734" y="772"/>
      <point x="707" y="844"/>
      <point x="586" y="844" type="curve" smooth="yes"/>
      <point x="473" y="844"/>
      <point x="377" y="771"/>
      <point x="335" y="686" type="curve"/>
      <point x="335" y="0" type="line"/>
      <point x="89" y="0" type="line"/>
      <point x="89" y="1108" type="line"/>
      <point x="-1" y="1108" type="line"/>
      <point x="-1" y="1249" type="line"/>
    </contour>
  </outline>
</glyph>
<glyph name="eng" format="1">
  <advance width="1041"/>
  <unicode hex="014B"/>
  <outline>
    <contour>
      <point x="646" y="-332" type="line" smooth="yes"/>
      <point x="963" y="-332"/>
      <point x="1023" y="-185"/>
      <point x="1024" y="101" type="curve"/>
      <point x="1024" y="640" type="line" smooth="yes"/>
      <point x="1024" y="891"/>
      <point x="911" y="1041"/>
      <point x="676" y="1041" type="curve" smooth="yes"/>
      <point x="535" y="1041"/>
      <point x="435" y="979"/>
      <point x="355" y="902" type="curve"/>
      <point x="331" y="1016" type="line"/>
      <point x="123" y="1016" type="line"/>
      <point x="123" y="0" type="line"/>
      <point x="379" y="0" type="line"/>
      <point x="379" y="496" type="line" smooth="yes"/>
      <point x="379" y="582"/>
      <point x="382" y="656"/>
      <point x="395" y="713" type="curve"/>
      <point x="431" y="789"/>
      <point x="513" y="844"/>
      <point x="611" y="844" type="curve" smooth="yes"/>
      <point x="737" y="844"/>
      <point x="767" y="761"/>
      <point x="768" y="612" type="curve"/>
      <point x="768" y="54" type="line" smooth="yes"/>
      <point x="768" y="-109"/>
      <point x="753" y="-141"/>
      <point x="617" y="-141" type="curve" smooth="yes"/>
      <point x="557" y="-141" type="line"/>
      <point x="583" y="-332" type="line"/>
    </contour>
    <contour>
      <point x="570" y="0" type="line" smooth="yes"/>
    </contour>
    <contour>
      <point x="570" y="1016" type="line" smooth="yes"/>
    </contour>
  </outline>
</glyph>
<glyph name="uni01C9" format="1">
  <advance width="1068"/>
  <unicode hex="01C9"/>
  <outline>
    <contour>
      <point x="151" y="-4" type="curve" smooth="yes"/>
      <point x="151" y="1017" type="line"/>
      <point x="404" y="1017" type="line"/>
      <point x="404" y="40" type="line" smooth="yes"/>
      <point x="404" y="-240"/>
      <point x="342" y="-379"/>
      <point x="24" y="-379" type="curve" smooth="yes"/>
      <point x="-36" y="-379" type="line"/>
      <point x="-65" y="-187" type="line"/>
      <point x="-3" y="-187" type="line" smooth="yes"/>
      <point x="138" y="-187"/>
      <point x="151" y="-149"/>
    </contour>
    <contour>
      <point x="404" y="1139" type="line"/>
      <point x="151" y="1139" type="line"/>
      <point x="151" y="1357" type="line"/>
      <point x="404" y="1357" type="line"/>
    </contour>
    <contour>
      <point x="844" y="1393" type="line"/>
      <point x="844" y="387" type="line" smooth="yes"/>
      <point x="844" y="188"/>
      <point x="895" y="178"/>
      <point x="971" y="178" type="curve" smooth="yes"/>
      <point x="1003" y="178"/>
      <point x="1039" y="185"/>
      <point x="1039" y="185" type="curve"/>
      <point x="1048" y="187" type="line"/>
      <point x="1079" y="7" type="line"/>
      <point x="1072" y="4" type="line"/>
      <point x="1072" y="4"/>
      <point x="1004" y="-13"/>
      <point x="929" y="-13" type="curve" smooth="yes"/>
      <point x="652" y="-13"/>
      <point x="591" y="124"/>
      <point x="591" y="401" type="curve" smooth="yes"/>
      <point x="591" y="1376" type="line"/>
    </contour>
  </outline>
</glyph>
<glyph name="uni01CB" format="1">
  <advance width="1828"/>
  <unicode hex="01CB"/>
  <outline>
    <contour>
      <point x="426" y="1342" type="line"/>
      <point x="1015" y="384" type="line"/>
      <point x="1014" y="461"/>
      <point x="996" y="793"/>
      <point x="996" y="801" type="curve" smooth="yes"/>
      <point x="996" y="1342" type="line"/>
      <point x="1282" y="1342" type="line"/>
      <point x="1282" y="0" type="line"/>
      <point x="975" y="0" type="line"/>
      <point x="387" y="945" type="line"/>
      <point x="387" y="945"/>
      <point x="415" y="430"/>
      <point x="415" y="409" type="curve" smooth="yes"/>
      <point x="415" y="0" type="line"/>
      <point x="130" y="0" type="line"/>
      <point x="130" y="1342" type="line"/>
    </contour>
    <contour>
      <point x="1518" y="-4" type="curve" smooth="yes"/>
      <point x="1518" y="1017" type="line"/>
      <point x="1771" y="1017" type="line"/>
      <point x="1771" y="40" type="line" smooth="yes"/>
      <point x="1771" y="-240"/>
      <point x="1709" y="-379"/>
      <point x="1391" y="-379" type="curve" smooth="yes"/>
      <point x="1331" y="-379" type="line"/>
      <point x="1302" y="-187" type="line"/>
      <point x="1364" y="-187" type="line" smooth="yes"/>
      <point x="1505" y="-187"/>
      <point x="1518" y="-149"/>
    </contour>
    <contour>
      <point x="1771" y="1139" type="line"/>
      <point x="1518" y="1139" type="line"/>
      <point x="1518" y="1357" type="line"/>
      <point x="1771" y="1357" type="line"/>
    </contour>
  </outline>
</glyph>
<glyph name="caron" format="1">
  <advance width="679"/>
  <unicode hex="02C7"/>
  <outline>
    <contour>
      <point x="271" y="1076" type="line"/>
      <point x="23" y="1413" type="line"/>
      <point x="224" y="1413" type="line"/>
      <point x="354" y="1242" type="line"/>
      <point x="504" y="1413" type="line"/>
      <point x="709" y="1413" type="line"/>
      <point x="461" y="1076" type="line"/>
    </contour>
    <contour>
      <point x="366" y="1016" type="line" smooth="yes"/>
    </contour>
    <contour>
      <point x="366" y="1016" type="move" name="_top"/>
    </contour>
  </outline>
</glyph>
<glyph name="breve" format="1">
  <advance width="622"/>
  <unicode hex="02D8"/>
  <outline>
    <contour>
      <point x="216" y="1354" type="line"/>
      <point x="216" y="1345" type="line" smooth="yes"/>
      <point x="216" y="1284"/>
      <point x="242" y="1260"/>
      <point x="316" y="1260" type="curve" smooth="yes"/>
      <point x="390" y="1260"/>
      <point x="417" y="1284"/>
      <point x="417" y="1345" type="curve" smooth="yes"/>
      <point x="417" y="1354" type="line"/>
      <point x="586" y="1354" type="line"/>
      <point x="586" y="1345" type="line" smooth="yes"/>
      <point x="586" y="1179"/>
      <point x="469" y="1102"/>
      <point x="316" y="1102" type="curve" smooth="yes"/>
      <point x="164" y="1102"/>
      <point x="48" y="1180"/>
      <point x="48" y="1345" type="curve" smooth="yes"/>
      <point x="48" y="1354" type="line"/>
    </contour>
    <contour>
      <point x="317" y="1016" type="line" smooth="yes"/>
    </contour>
    <contour>
      <point x="317" y="1016" type="move" name="_top"/>
    </contour>
  </outline>
</glyph>
<glyph name="tilde" format="1">
  <advance width="690"/>
  <unicode hex="02DC"/>
  <outline>
    <contour>
      <point x="484" y="1260" type="curve"/>
      <point x="504" y="1261"/>
      <point x="515" y="1281"/>
      <point x="516" y="1335" type="curve"/>
      <point x="516" y="1345" type="line"/>
      <point x="666" y="1345" type="line"/>
      <point x="666" y="1335" type="line" smooth="yes"/>
      <point x="666" y="1249"/>
      <point x="656" y="1103"/>
      <point x="508" y="1103" type="curve" smooth="yes"/>
      <point x="407" y="1103"/>
      <point x="274" y="1193"/>
      <point x="217" y="1193" type="curve" smooth="yes"/>
      <point x="196" y="1193"/>
      <point x="183" y="1175"/>
      <point x="182" y="1114" type="curve"/>
      <point x="182" y="1103" type="line"/>
      <point x="35" y="1103" type="line"/>
      <point x="35" y="1113" type="line" smooth="yes"/>
      <point x="35" y="1207"/>
      <point x="49" y="1345"/>
      <point x="197" y="1345" type="curve" smooth="yes"/>
      <point x="318" y="1345"/>
      <point x="453" y="1260"/>
    </contour>
    <contour>
      <point x="350.5" y="1016" type="line" smooth="yes"/>
    </contour>
    <contour>
      <point x="350.5" y="1016" type="move" name="_top"/>
    </contour>
  </outline>
</glyph>
<glyph name="uni0307" format="1">
  <advance width="451"/>
  <unicode hex="0307"/>
  <outline>
    <contour>
      <point x="135" y="1095" type="line"/>
      <point x="135" y="1307" type="line"/>
      <point x="333" y="1307" type="line"/>
      <point x="333" y="1095" type="line"/>
    </contour>
    <contour>
      <point x="234" y="1016" type="line" smooth="yes"/>
    </contour>
    <contour>
      <point x="234" y="1016" type="move" name="_top"/>
    </contour>
  </outline>
</glyph>
<glyph name="Alpha" format="1">
  <advance width="1194"/>
  <unicode hex="0391"/>
  <outline>
    <contour>
      <point x="941" y="0" type="line"/>
      <point x="814" y="368" type="line"/>
      <point x="414" y="368" type="line"/>
      <point x="294" y="0" type="line"/>
      <point x="-7" y="0" type="line"/>
      <point x="449" y="1342" type="line"/>
      <point x="781" y="1342" type="line"/>
      <point x="1230" y="0" type="line"/>
    </contour>
    <contour>
      <point x="476" y="577" type="curve"/>
      <point x="754" y="577" type="line"/>
      <point x="734" y="642"/>
      <point x="648" y="950"/>
      <point x="616" y="1054" type="curve"/>
      <point x="585" y="957"/>
      <point x="498" y="647"/>
    </contour>
    <contour>
      <point x="597" y="1342" type="line" smooth="yes"/>
    </contour>
    <contour>
      <point x="597" y="1342" type="move" name="top"/>
    </contour>
  </outline>
</glyph>
<glyph name="Epsilon" format="1">
  <advance width="1009"/>
  <unicode hex="0395"/>
  <outline>
    <contour>
      <point x="416" y="1122" type="line"/>
      <point x="416" y="805" type="line"/>
      <point x="920" y="805" type="line"/>
      <point x="920" y="595" type="line"/>
      <point x="416" y="595" type="line"/>
      <point x="416" y="220" type="line"/>
      <point x="968" y="220" type="line"/>
      <point x="961" y="0" type="line"/>
      <point x="128" y="0" type="line"/>
      <point x="128" y="1342" type="line"/>
      <point x="958" y="1342" type="line"/>
      <point x="947" y="1122" type="line"/>
    </contour>
    <contour>
      <point x="505" y="1342" type="line" smooth="yes"/>
    </contour>
    <contour>
      <point x="505" y="1342" type="move" name="top"/>
    </contour>
  </outline>
</glyph>
<glyph name="afii10023" format="1">
  <advance width="1108"/>
  <unicode hex="0401"/>
  <outline>
    <contour>
      <point x="504" y="1449" type="line"/>
      <point x="310" y="1449" type="line"/>
      <point x="310" y="1694" type="line"/>
      <point x="504" y="1694" type="line"/>
    </contour>
    <contour>
      <point x="879" y="1449" type="line"/>
      <point x="686" y="1449" type="line"/>
      <point x="686" y="1694" type="line"/>
      <point x="879" y="1694" type="line"/>
    </contour>
  </outline>
</glyph>
<glyph name="afii10054" format="1">
  <advance width="1036"/>
  <unicode hex="0405"/>
  <outline>
    <contour>
      <point x="505" y="-17" type="curve" smooth="yes"/>
      <point x="329" y="-17"/>
      <point x="184" y="16"/>
      <point x="68" y="82" type="curve"/>
      <point x="133" y="300" type="line"/>
      <point x="215" y="251"/>
      <point x="383" y="210"/>
      <point x="515" y="210" type="curve" smooth="yes"/>
      <point x="656" y="210"/>
      <point x="725" y="262"/>
      <point x="725" y="385" type="curve" smooth="yes"/>
      <point x="725" y="464"/>
      <point x="670" y="512"/>
      <point x="573" y="544" type="curve" smooth="yes"/>
      <point x="349" y="617" type="line" smooth="yes"/>
      <point x="187" y="670"/>
      <point x="83" y="785"/>
      <point x="83" y="975" type="curve" smooth="yes"/>
      <point x="83" y="1227"/>
      <point x="280" y="1358"/>
      <point x="548" y="1358" type="curve" smooth="yes"/>
      <point x="708" y="1358"/>
      <point x="842" y="1324"/>
      <point x="963" y="1255" type="curve"/>
      <point x="882" y="1048" type="line"/>
      <point x="790" y="1088"/>
      <point x="678" y="1128"/>
      <point x="559" y="1128" type="curve" smooth="yes"/>
      <point x="426" y="1128"/>
      <point x="352" y="1087"/>
      <point x="352" y="980" type="curve" smooth="yes"/>
      <point x="352" y="915"/>
      <point x="389" y="873"/>
      <point x="450" y="853" type="curve" smooth="yes"/>
      <point x="658" y="783" type="line"/>
      <point x="893" y="705"/>
      <point x="998" y="598"/>
      <point x="998" y="381" type="curve" smooth="yes"/>
      <point x="998" y="119"/>
      <point x="794" y="-17"/>
    </contour>
  </outline>
</glyph>
<glyph name="afii10066" format="1">
  <advance width="953"/>
  <unicode hex="0431"/>
  <outline>
    <contour>
      <point x="336" y="188" type="line"/>
      <point x="550" y="188" type="line" smooth="yes"/>
      <point x="636" y="188"/>
      <point x="688" y="266"/>
      <point x="688" y="341" type="curve" smooth="yes"/>
      <point x="688" y="411"/>
      <point x="639" y="478"/>
      <point x="546" y="478" type="curve" smooth="yes"/>
      <point x="336" y="478" type="line"/>
    </contour>
    <contour>
      <point x="815" y="821" type="line"/>
      <point x="335" y="821" type="line"/>
      <point x="335" y="660" type="line"/>
      <point x="554" y="660" type="line" smooth="yes"/>
      <point x="746" y="660"/>
      <point x="914" y="550"/>
      <point x="914" y="337" type="curve" smooth="yes"/>
      <point x="914" y="138"/>
      <point x="773" y="0"/>
      <point x="565" y="0" type="curve" smooth="yes"/>
      <point x="89" y="0" type="line"/>
      <point x="89" y="1016" type="line"/>
      <point x="815" y="1016" type="line"/>
    </contour>
  </outline>
</glyph>
<glyph name="afii10073" format="1">
  <advance width="874"/>
  <unicode hex="0437"/>
  <outline>
    <contour>
      <point x="64" y="90" type="line"/>
      <point x="68" y="97"/>
      <point x="99" y="228"/>
      <point x="104" y="240" type="curve" smooth="yes"/>
      <point x="109" y="250" type="line"/>
      <point x="118" y="243" type="line"/>
      <point x="183" y="200"/>
      <point x="304" y="169"/>
      <point x="431" y="169" type="curve" smooth="yes"/>
      <point x="570" y="169"/>
      <point x="620" y="219"/>
      <point x="620" y="305" type="curve" smooth="yes"/>
      <point x="620" y="368"/>
      <point x="563" y="419"/>
      <point x="458" y="419" type="curve" smooth="yes"/>
      <point x="253" y="419" type="line"/>
      <point x="253" y="596" type="line"/>
      <point x="458" y="596" type="line" smooth="yes"/>
      <point x="551" y="596"/>
      <point x="593" y="647"/>
      <point x="593" y="706" type="curve" smooth="yes"/>
      <point x="593" y="782"/>
      <point x="539" y="823"/>
      <point x="408" y="823" type="curve" smooth="yes"/>
      <point x="276" y="823"/>
      <point x="174" y="797"/>
      <point x="120" y="759" type="curve" smooth="yes"/>
      <point x="110" y="752" type="line"/>
      <point x="106" y="765" type="line"/>
      <point x="106" y="765"/>
      <point x="63" y="910"/>
      <point x="60" y="916" type="curve" smooth="yes"/>
      <point x="55" y="924" type="line"/>
      <point x="62" y="928" type="line"/>
      <point x="144" y="987"/>
      <point x="291" y="1006"/>
      <point x="410" y="1006" type="curve" smooth="yes"/>
      <point x="635" y="1006"/>
      <point x="813" y="918"/>
      <point x="813" y="736" type="curve" smooth="yes"/>
      <point x="813" y="647"/>
      <point x="775" y="562"/>
      <point x="687" y="521" type="curve"/>
      <point x="776" y="481"/>
      <point x="837" y="386"/>
      <point x="839" y="286" type="curve"/>
      <point x="839" y="68"/>
      <point x="656" y="-18"/>
      <point x="424" y="-18" type="curve" smooth="yes"/>
      <point x="273" y="-18"/>
      <point x="147" y="16"/>
      <point x="67" y="79" type="curve"/>
      <point x="62" y="84" type="line"/>
    </contour>
    <contour>
      <point x="437" y="1016" type="line" smooth="yes"/>
    </contour>
    <contour>
      <point x="437" y="0" type="line" smooth="yes"/>
    </contour>
    <contour>
      <point x="437" y="1016" type="move" name="top"/>
    </contour>
    <contour>
      <point x="437" y="0" type="move" name="bottom"/>
    </contour>
  </outline>
</glyph>
<glyph name="afii10076" format="1">
  <advance width="987"/>
  <unicode hex="043A"/>
  <outline>
    <contour>
      <point x="336" y="634" type="line"/>
      <point x="385" y="686"/>
      <point x="542" y="855"/>
      <point x="580" y="896" type="curve" smooth="yes"/>
      <point x="654" y="977"/>
      <point x="715" y="1025"/>
      <point x="821" y="1025" type="curve" smooth="yes"/>
      <point x="879" y="1025"/>
      <point x="926" y="1012"/>
      <point x="932" y="1011" type="curve" smooth="yes"/>
      <point x="941" y="1010" type="line"/>
      <point x="941" y="807" type="line"/>
      <point x="929" y="809" type="line" smooth="yes"/>
      <point x="923" y="810"/>
      <point x="860" y="823"/>
      <point x="840" y="823" type="curve" smooth="yes"/>
      <point x="792" y="823"/>
      <point x="760" y="770"/>
      <point x="699" y="705" type="curve" smooth="yes"/>
      <point x="665" y="668"/>
      <point x="538" y="536"/>
      <point x="505" y="502" type="curve"/>
      <point x="1034" y="0" type="line"/>
      <point x="713" y="0" type="line"/>
      <point x="336" y="373" type="line"/>
      <point x="336" y="0" type="line"/>
      <point x="89" y="0" type="line"/>
      <point x="89" y="1016" type="line"/>
      <point x="336" y="1016" type="line"/>
    </contour>
    <contour>
      <point x="494" y="1016" type="line" smooth="yes"/>
    </contour>
    <contour>
      <point x="494" y="1016" type="move" name="top"/>
    </contour>
  </outline>
</glyph>
<glyph name="afii10077" format="1">
  <advance width="1075"/>
  <unicode hex="043B"/>
  <outline>
    <contour>
      <point x="20" y="-24" type="curve" smooth="yes"/>
      <point x="11" y="-25"/>
      <point x="-6" y="-25"/>
      <point x="-15" y="-25" type="curve" smooth="yes"/>
      <point x="-25" y="-25" type="line"/>
      <point x="-28" y="177" type="line"/>
      <point x="10" y="181" type="line"/>
      <point x="141" y="193"/>
      <point x="151" y="219"/>
      <point x="151" y="387" type="curve" smooth="yes"/>
      <point x="151" y="1016" type="line"/>
      <point x="1004" y="1016" type="line"/>
      <point x="1004" y="1" type="line"/>
      <point x="758" y="1" type="line"/>
      <point x="758" y="811" type="line"/>
      <point x="395" y="811" type="line"/>
      <point x="395" y="360" type="line" smooth="yes"/>
      <point x="395" y="94"/>
      <point x="267" y="-16"/>
    </contour>
  </outline>
</glyph>
<glyph name="afii10082" format="1">
  <advance width="1101"/>
  <unicode hex="0440"/>
  <outline>
    <contour>
      <point x="607" y="179" type="curve" smooth="yes"/>
      <point x="733" y="179"/>
      <point x="817" y="291"/>
      <point x="817" y="515" type="curve" smooth="yes"/>
      <point x="817" y="746"/>
      <point x="730" y="844"/>
      <point x="603" y="844" type="curve" smooth="yes"/>
      <point x="467" y="844"/>
      <point x="384" y="755"/>
      <point x="382" y="530" type="curve"/>
      <point x="382" y="277"/>
      <point x="463" y="179"/>
    </contour>
    <contour>
      <point x="130" y="1017" type="line"/>
      <point x="349" y="1017" type="line"/>
      <point x="371" y="906" type="line"/>
      <point x="430" y="976"/>
      <point x="548" y="1041"/>
      <point x="676" y="1041" type="curve" smooth="yes"/>
      <point x="924" y="1041"/>
      <point x="1070" y="806"/>
      <point x="1070" y="513" type="curve" smooth="yes"/>
      <point x="1070" y="207"/>
      <point x="915" y="-18"/>
      <point x="655" y="-18" type="curve" smooth="yes"/>
      <point x="540" y="-18"/>
      <point x="446" y="28"/>
      <point x="379" y="99" type="curve"/>
      <point x="382" y="54"/>
      <point x="384" y="13"/>
      <point x="384" y="-15" type="curve" smooth="yes"/>
      <point x="384" y="-395" type="line"/>
      <point x="130" y="-408" type="line"/>
    </contour>
  </outline>
</glyph>
<glyph name="afii10087" format="1">
  <advance width="1015"/>
  <unicode hex="0445"/>
  <outline>
    <contour>
      <point x="28" y="0" type="line"/>
      <point x="381" y="520" type="line"/>
      <point x="45" y="1017" type="line"/>
      <point x="333" y="1017" type="line"/>
      <point x="540" y="688" type="line"/>
      <point x="756" y="1017" type="line"/>
      <point x="1040" y="1017" type="line"/>
      <point x="701" y="521" type="line"/>
      <point x="1051" y="0" type="line"/>
      <point x="760" y="0" type="line"/>
      <point x="540" y="355" type="line"/>
      <point x="315" y="0" type="line"/>
    </contour>
  </outline>
</glyph>
<glyph name="afii10097" format="1">
  <advance width="992"/>
  <unicode hex="044F"/>
  <outline>
    <contour>
      <point x="438" y="1016" type="curve" smooth="yes"/>
      <point x="926" y="1016" type="line"/>
      <point x="926" y="0" type="line"/>
      <point x="680" y="0" type="line"/>
      <point x="680" y="392" type="line"/>
      <point x="524" y="392" type="line"/>
      <point x="338" y="0" type="line"/>
      <point x="63" y="0" type="line"/>
      <point x="284" y="430" type="line"/>
      <point x="170" y="475"/>
      <point x="83" y="570"/>
      <point x="83" y="705" type="curve" smooth="yes"/>
      <point x="83" y="898"/>
      <point x="231" y="1016"/>
    </contour>
    <contour>
      <point x="460" y="813" type="line" smooth="yes"/>
      <point x="368" y="813"/>
      <point x="327" y="764"/>
      <point x="327" y="705" type="curve" smooth="yes"/>
      <point x="327" y="698" type="line"/>
      <point x="331" y="637"/>
      <point x="367" y="588"/>
      <point x="460" y="588" type="curve" smooth="yes"/>
      <point x="680" y="588" type="line"/>
      <point x="680" y="813" type="line"/>
    </contour>
  </outline>
</glyph>
<glyph name="afii10107" format="1">
  <advance width="1486"/>
  <unicode hex="045A"/>
  <outline>
    <contour>
      <point x="940" y="463" type="line"/>
      <point x="940" y="191" type="line"/>
      <point x="1100" y="191" type="line" smooth="yes"/>
      <point x="1195" y="191"/>
      <point x="1246" y="255"/>
      <point x="1246" y="333" type="curve" smooth="yes"/>
      <point x="1246" y="406"/>
      <point x="1193" y="463"/>
      <point x="1099" y="463" type="curve" smooth="yes"/>
    </contour>
    <contour>
      <point x="696" y="642" type="line"/>
      <point x="696" y="1016" type="line"/>
      <point x="940" y="1016" type="line"/>
      <point x="940" y="643" type="line"/>
      <point x="1111" y="643" type="line" smooth="yes"/>
      <point x="1318" y="643"/>
      <point x="1457" y="544"/>
      <point x="1457" y="328" type="curve" smooth="yes"/>
      <point x="1457" y="138"/>
      <point x="1315" y="0"/>
      <point x="1110" y="0" type="curve" smooth="yes"/>
      <point x="696" y="0" type="line"/>
      <point x="696" y="437" type="line"/>
      <point x="336" y="437" type="line"/>
      <point x="336" y="0" type="line"/>
      <point x="89" y="0" type="line"/>
      <point x="89" y="1016" type="line"/>
      <point x="336" y="1016" type="line"/>
      <point x="336" y="642" type="line"/>
    </contour>
  </outline>
</glyph>
<glyph name="approxequal" format="1">
  <advance width="1151"/>
  <unicode hex="2248"/>
  <outline>
    <contour>
      <point x="212" y="104" type="curve"/>
      <point x="204" y="89" type="line"/>
      <point x="113" y="221" type="line"/>
      <point x="114" y="226" type="line"/>
      <point x="158" y="335"/>
      <point x="241" y="421"/>
      <point x="383" y="421" type="curve" smooth="yes"/>
      <point x="464" y="421"/>
      <point x="548" y="390"/>
      <point x="620" y="357" type="curve"/>
      <point x="695" y="321"/>
      <point x="753" y="299"/>
      <point x="803" y="299" type="curve" smooth="yes"/>
      <point x="871" y="299"/>
      <point x="925" y="333"/>
      <point x="999" y="421" type="curve"/>
      <point x="1006" y="432" type="line"/>
      <point x="1089" y="310" type="line"/>
      <point x="1087" y="305" type="line"/>
      <point x="1044" y="206"/>
      <point x="929" y="110"/>
      <point x="789" y="110" type="curve" smooth="yes"/>
      <point x="700" y="110"/>
      <point x="634" y="139"/>
      <point x="543" y="183" type="curve"/>
      <point x="485" y="213"/>
      <point x="439" y="234"/>
      <point x="376" y="234" type="curve" smooth="yes"/>
      <point x="295" y="234"/>
      <point x="245" y="176"/>
    </contour>
    <contour>
      <point x="622" y="723" type="curve"/>
      <point x="699" y="685"/>
      <point x="752" y="667"/>
      <point x="803" y="667" type="curve" smooth="yes"/>
      <point x="871" y="667"/>
      <point x="926" y="700"/>
      <point x="998" y="789" type="curve"/>
      <point x="1005" y="799" type="line"/>
      <point x="1089" y="678" type="line"/>
      <point x="1087" y="673" type="line"/>
      <point x="1044" y="573"/>
      <point x="928" y="478"/>
      <point x="788" y="478" type="curve" smooth="yes"/>
      <point x="699" y="478"/>
      <point x="633" y="507"/>
      <point x="543" y="551" type="curve"/>
      <point x="485" y="581"/>
      <point x="438" y="602"/>
      <point x="375" y="602" type="curve" smooth="yes"/>
      <point x="295" y="602"/>
      <point x="244" y="544"/>
      <point x="212" y="472" type="curve"/>
      <point x="204" y="457" type="line"/>
      <point x="113" y="589" type="line"/>
      <point x="114" y="594" type="line"/>
      <point x="157" y="703"/>
      <point x="240" y="789"/>
      <point x="382" y="789" type="curve" smooth="yes"/>
      <point x="462" y="789"/>
      <point x="546" y="759"/>
    </contour>
  </outline>
</glyph>
